# xmcd CD database file
#
# Track frame offsets:
#	150
#	14865
#	39722
#	62890
#	83027
#	112115
#	122500
#	138360
#	157302
#	174137
#	196242
#	215752
#	246627
#
# Disc length: 3630 seconds
#
# Revision: 0
# Processed by: cddbd v1.4PL0 Copyright (c) Steve Scherf et al.
# Submitted via: CDex 1.40Beta8
#
DISCID=c50e2c0d
DTITLE=Wild Child Butler - Sho' 'Nuff
DYEAR=2001
DGENRE=Blues
TTITLE0=Open Up Baby
TTITLE1=You Had Quit Me
TTITLE2=I Got To Go (Sweet Daddy-O)
TTITLE3=Can You Use A Man Like Me
TTITLE4=Moaning Morning
TTITLE5=Slippin' In
TTITLE6=Funky Things
TTITLE7=Maryanne
TTITLE8=It's All Over
TTITLE9=Loving
TTITLE10=Achin' All Over
TTITLE11=I Changed
TTITLE12=Baby I Can't Exist
EXTD=YEAR: 2001 ID3G: 0
EXTT0=
EXTT1=
EXTT2=
EXTT3=
EXTT4=
EXTT5=
EXTT6=
EXTT7=
EXTT8=
EXTT9=
EXTT10=
EXTT11=
EXTT12=
PLAYORDER=
